<svg xmlns="http://www.w3.org/2000/svg" version="1.1" xmlns:xlink="http://www.w3.org/1999/xlink" xmlns:svgjs="http://svgjs.com/svgjs" width="1440" height="560" preserveAspectRatio="none" viewBox="0 0 1440 560"><g mask="url(&quot;#SvgjsMask1000&quot;)" fill="none"><rect width="1440" height="560" x="0" y="0" fill="#0e2a47"></rect><path d="M 0,148 C 57.6,130.2 172.8,40.4 288,59 C 403.2,77.6 460.8,239 576,241 C 691.2,243 748.8,77.8 864,69 C 979.2,60.2 1036.8,201 1152,197 C 1267.2,193 1382.4,78.6 1440,49L1440 560L0 560z" fill="#184a7e"></path><path d="M 0,560 C 96,506 288,315.6 480,290 C 672,264.4 768,416.6 960,432 C 1152,447.4 1344,380 1440,367L1440 560L0 560z" fill="#2264ab"></path></g><defs><mask id="SvgjsMask1000"><rect width="1440" height="560" fill="#ffffff"></rect></mask></defs></svg>